HIERARCHY
ROOT Pelvis
{
	OFFSET 0.000000 0.000000 0.000000
	CHANNELS 6 Xposition Yposition Zposition Xrotation Yrotation Zrotation
	JOINT LeftUpLeg_virtual
	{
		OFFSET 0.000000 0.000000 0.000000
		CHANNELS 3 Xrotation Yrotation Zrotation
		JOINT LeftUpLeg
		{
			OFFSET 18.735201 -5.666702 -4.541200
			CHANNELS 3 Xrotation Yrotation Zrotation
			JOINT LeftLeg
			{
				OFFSET -0.021200 -31.938179 0.493100
				CHANNELS 3 Xrotation Yrotation Zrotation
				JOINT LeftFoot
				{
					OFFSET 0.021200 -31.938179 -4.336299
					CHANNELS 3 Xrotation Yrotation Zrotation
					JOINT LeftToeBase
					{
						OFFSET 0.943001 -26.722000 15.023500
						CHANNELS 3 Xrotation Yrotation Zrotation
						End Site
						{
							OFFSET 0 0 0
						}
					}
				}
			}
		}
	}
	JOINT RightUpLeg_virtual
	{
		OFFSET 0.000000 0.000000 0.000000
		CHANNELS 3 Xrotation Yrotation Zrotation
		JOINT RightUpLeg
		{
			OFFSET -18.735201 -5.666702 -4.541200
			CHANNELS 3 Xrotation Yrotation Zrotation
			JOINT RightLeg
			{
				OFFSET 0.018946 -31.938133 0.493100
				CHANNELS 3 Xrotation Yrotation Zrotation
				JOINT RightFoot
				{
					OFFSET -0.018946 -31.938126 -4.336299
					CHANNELS 3 Xrotation Yrotation Zrotation
					JOINT RightToeBase
					{
						OFFSET -0.943001 -26.722004 15.023500
						CHANNELS 3 Xrotation Yrotation Zrotation
						End Site
						{
							OFFSET 0 0 0
						}
					}
				}
			}
		}
	}
	JOINT Hips_virtual
	{
		OFFSET 0.000000 0.000000 0.000000
		CHANNELS 3 Xrotation Yrotation Zrotation
		JOINT Hips
		{
			OFFSET -0.000000 -0.000000 -0.000000
			CHANNELS 3 Xrotation Yrotation Zrotation
			JOINT Spine
			{
				OFFSET 0.000000 10.199997 -0.299500
				CHANNELS 3 Xrotation Yrotation Zrotation
				JOINT Spine1
				{
					OFFSET 0.000000 11.900002 -1.516600
					CHANNELS 3 Xrotation Yrotation Zrotation
					JOINT Spine2
					{
						OFFSET 0.000000 13.600006 -2.842500
						CHANNELS 3 Xrotation Yrotation Zrotation
						JOINT Neck_virtual
						{
							OFFSET 0.000000 0.000000 0.000000
							CHANNELS 3 Xrotation Yrotation Zrotation
							JOINT Neck
							{
								OFFSET 0.000000 9.624100 -2.890100
								CHANNELS 3 Xrotation Yrotation Zrotation
								JOINT Head
								{
									OFFSET 0.000000 14.068802 -1.351900
									CHANNELS 3 Xrotation Yrotation Zrotation
									End Site
									{
										OFFSET 0 0 0
									}
								}
							}
						}
						JOINT LeftShoulder_virtual
						{
							OFFSET 0.000000 0.000000 0.000000
							CHANNELS 3 Xrotation Yrotation Zrotation
							JOINT LeftShoulder
							{
								OFFSET 15.263000 10.923401 -0.547700
								CHANNELS 3 Xrotation Yrotation Zrotation
								JOINT LeftArm
								{
									OFFSET 25.438599 -2.830597 -13.032500
									CHANNELS 3 Xrotation Yrotation Zrotation
									JOINT LeftForeArm
									{
										OFFSET 29.960503 0.000000 0.000000
										CHANNELS 3 Xrotation Yrotation Zrotation
										JOINT LeftHand
										{
											OFFSET 27.849251 0.000000 0.000000
											CHANNELS 3 Xrotation Yrotation Zrotation
											End Site
											{
												OFFSET 0 0 0
											}
										}
									}
								}
							}
						}
						JOINT RightShoulder_virtual
						{
							OFFSET 0.000000 0.000000 0.000000
							CHANNELS 3 Xrotation Yrotation Zrotation
							JOINT RightShoulder
							{
								OFFSET -15.263000 10.923401 -0.547700
								CHANNELS 3 Xrotation Yrotation Zrotation
								JOINT RightArm
								{
									OFFSET -25.438599 -2.830597 -13.032500
									CHANNELS 3 Xrotation Yrotation Zrotation
									JOINT RightForeArm
									{
										OFFSET -29.960503 0.000000 0.000000
										CHANNELS 3 Xrotation Yrotation Zrotation
										JOINT RightHand
										{
											OFFSET -27.849251 0.000000 0.000000
											CHANNELS 3 Xrotation Yrotation Zrotation
											End Site
											{
												OFFSET 0 0 0
											}
										}
									}
								}
							}
						}
					}
				}
			}
		}
	}
}
MOTION
Frames: 12
Frame Time: 0.03333333
-2.941785 89.303528 -0.195049 0.000000 0.000000 0.000000 -10.348741 -18.744407 -3.291636 -56.163635 3.793393 16.020707 58.071867 0.245219 -0.941230 6.678574 -0.041197 -6.743287 0.000000 0.000000 0.000000 6.184983 -2.975385 9.002819 -22.626655 -7.848040 -5.622736 38.792251 4.119860 -4.017282 -15.608908 1.945773 7.864804 0.000000 0.000000 0.000000 -0.296684 -6.322754 1.555171 2.240998 7.017117 3.781521 9.629399 -0.139760 -4.050435 3.351225 0.136011 -1.840272 0.000000 0.000000 0.000000 4.809728 -0.237103 -1.003343 -0.245093 0.161100 -0.205060 0.000000 0.000000 0.000000 2.273589 0.124209 -1.245244 1.160037 -0.909586 -12.666015 7.215665 -6.433133 -53.062790 5.142121 -42.444981 -0.877490 0.000000 0.000000 0.000000 4.573747 0.071543 0.490747 2.152270 3.499803 11.624359 7.933435 6.033244 44.390509 6.709961 53.422215 -1.327237 0.000000 0.000000 0.000000 
-3.029610 89.133949 -0.447779 0.000000 0.000000 0.000000 -10.201364 -19.473841 -3.334104 -55.908442 3.664843 15.921839 56.810156 0.179879 -0.747366 5.802325 -0.162112 -6.492632 0.000000 0.000000 0.000000 6.111952 -2.768264 9.035369 -22.773538 -7.797037 -5.609791 38.979326 4.061481 -3.979532 -15.510750 1.875850 7.902828 0.000000 0.000000 0.000000 -0.204170 -6.257279 1.577568 2.630964 7.097973 3.895763 9.711827 -0.109086 -4.027272 3.414262 0.145793 -1.832773 0.000000 0.000000 0.000000 4.848803 -0.234541 -0.995442 -0.223980 0.154353 -0.197709 0.000000 0.000000 0.000000 2.338006 0.127131 -1.241237 1.195274 -0.920620 -12.645844 7.206848 -6.456931 -53.229399 5.141216 -42.565452 -0.922631 0.000000 0.000000 0.000000 4.650796 0.115257 0.510151 2.186459 3.715904 11.687309 7.853034 6.233456 44.077075 6.784635 53.475163 -1.492971 0.000000 0.000000 0.000000 
-3.089542 88.961380 -0.697466 0.000000 0.000000 0.000000 -9.951678 -20.492258 -3.364189 -55.548890 3.486774 15.827104 55.806593 0.003527 -0.530877 5.065739 -0.421143 -6.289253 0.000000 0.000000 0.000000 6.045091 -2.565904 9.043346 -22.902538 -7.741650 -5.617761 39.173303 4.024661 -3.958009 -15.387129 1.840248 7.927487 0.000000 0.000000 0.000000 -0.100962 -6.204532 1.596410 3.075554 7.167559 3.964185 9.770765 -0.092245 -3.984587 3.465318 0.147041 -1.814551 0.000000 0.000000 0.000000 4.883127 -0.232598 -0.980798 -0.205413 0.149191 -0.188346 0.000000 0.000000 0.000000 2.388948 0.128746 -1.230614 1.221143 -0.912759 -12.617580 7.153309 -6.462032 -53.396633 5.118837 -42.703285 -0.971807 0.000000 0.000000 0.000000 4.724517 0.154116 0.528372 2.219690 3.921150 11.741849 7.745721 6.419507 43.741812 6.857734 53.553147 -1.681501 0.000000 0.000000 0.000000 
-3.135787 88.794144 -0.930298 0.000000 0.000000 0.000000 -9.585361 -20.985034 -3.299842 -55.114429 3.426441 15.818310 54.880464 -0.090254 -0.345286 4.362654 -0.577593 -6.066939 0.000000 0.000000 0.000000 5.991544 -2.357648 9.044505 -23.000698 -7.684046 -5.624987 39.345090 4.003920 -3.949477 -15.258267 1.830219 7.937999 0.000000 0.000000 0.000000 0.010914 -6.142810 1.614136 3.560408 7.294156 4.012014 9.815864 -0.086147 -3.933060 3.509107 0.141884 -1.790952 0.000000 0.000000 0.000000 4.911650 -0.232339 -0.959429 -0.190130 0.145346 -0.177003 0.000000 0.000000 0.000000 2.432189 0.126542 -1.213228 1.241737 -0.893747 -12.581063 7.104316 -6.481007 -53.544725 5.105382 -42.864123 -1.006649 0.000000 0.000000 0.000000 4.792040 0.187089 0.547941 2.248452 4.113536 11.797703 7.613053 6.613543 43.428638 6.924351 53.684969 -1.871678 0.000000 0.000000 0.000000 
-3.198699 88.691231 -1.197809 0.000000 0.000000 0.000000 -9.183441 -21.059990 -3.259243 -54.654166 3.491465 15.790675 53.981707 -0.146818 -0.229676 3.653630 -0.659575 -5.926395 0.000000 0.000000 0.000000 5.951632 -2.171590 9.028284 -23.067258 -7.628880 -5.643532 39.436467 3.980187 -3.953392 -15.155910 1.826612 7.916633 0.000000 0.000000 0.000000 0.126034 -6.089036 1.627194 4.047558 7.441849 4.009199 9.850818 -0.099419 -3.888591 3.547050 0.126042 -1.770836 0.000000 0.000000 0.000000 4.928540 -0.238014 -0.933475 -0.181212 0.140812 -0.164910 0.000000 0.000000 0.000000 2.474477 0.117274 -1.191973 1.261927 -0.871960 -12.546757 7.095542 -6.532281 -53.670015 5.115875 -43.036004 -1.025369 0.000000 0.000000 0.000000 4.845414 0.209545 0.569504 2.265450 4.274439 11.855515 7.446415 6.780491 43.154453 6.965434 53.843225 -2.043462 0.000000 0.000000 0.000000 
-3.288795 88.713310 -1.501560 0.000000 0.000000 0.000000 -8.757923 -20.880182 -3.216261 -54.182169 3.625265 15.770495 53.154240 -0.108668 -0.128284 2.994138 -0.634987 -5.734833 0.000000 0.000000 0.000000 5.923032 -2.041014 8.998429 -23.108968 -7.585378 -5.672899 39.441925 3.931376 -3.968658 -15.079808 1.809295 7.849043 0.000000 0.000000 0.000000 0.248967 -6.042134 1.636679 4.564046 7.600478 3.972751 9.893715 -0.139820 -3.852574 3.588149 0.095598 -1.755086 0.000000 0.000000 0.000000 4.936008 -0.255429 -0.906101 -0.176783 0.132139 -0.153903 0.000000 0.000000 0.000000 2.518263 0.097820 -1.166490 1.283326 -0.863378 -12.512838 7.127423 -6.635726 -53.747780 5.158335 -43.224961 -1.015611 0.000000 0.000000 0.000000 4.887672 0.217122 0.593166 2.276642 4.389449 11.914664 7.259628 6.913264 42.952843 6.978429 54.013652 -2.178821 0.000000 0.000000 0.000000 
-3.379853 88.887039 -1.796919 0.000000 0.000000 0.000000 -8.257155 -20.644330 -3.271024 -53.593390 3.837298 15.644299 52.391113 -0.194286 -0.098947 2.360314 -0.709832 -5.754381 0.000000 0.000000 0.000000 5.903141 -1.965176 8.964605 -23.124019 -7.555035 -5.699530 39.265467 3.846465 -3.985403 -15.083991 1.759483 7.733381 0.000000 0.000000 0.000000 0.386572 -6.013007 1.646306 5.132364 7.733790 3.919918 9.947578 -0.206033 -3.822342 3.635964 0.051530 -1.741879 0.000000 0.000000 0.000000 4.936845 -0.284358 -0.876898 -0.175936 0.119310 -0.143563 0.000000 0.000000 0.000000 2.569898 0.065679 -1.140079 1.310720 -0.876205 -12.487390 7.208462 -6.781822 -53.761826 5.234014 -43.409517 -0.974460 0.000000 0.000000 0.000000 4.919913 0.210186 0.618590 2.283577 4.456642 11.972643 7.051169 7.019264 42.833974 6.958240 54.208742 -2.268989 0.000000 0.000000 0.000000 
-3.454164 89.232277 -2.069267 0.000000 0.000000 0.000000 -7.678378 -20.430725 -3.317768 -52.923526 4.060422 15.519160 51.784350 -0.268588 -0.065379 1.844706 -0.780035 -5.757900 0.000000 0.000000 0.000000 5.888302 -1.925421 8.944301 -23.121790 -7.537244 -5.706894 38.912759 3.720476 -4.017687 -15.173409 1.678436 7.546714 0.000000 0.000000 0.000000 0.545613 -5.969773 1.656036 5.782371 7.924297 3.836254 10.003843 -0.297421 -3.802784 3.681473 -0.005606 -1.733541 0.000000 0.000000 0.000000 4.935679 -0.322552 -0.848475 -0.176433 0.103599 -0.134842 0.000000 0.000000 0.000000 2.629855 0.020272 -1.112102 1.341779 -0.920830 -12.468728 7.311148 -6.997210 -53.749238 5.332339 -43.625890 -0.918289 0.000000 0.000000 0.000000 4.946367 0.187640 0.646212 2.289489 4.472960 12.030992 6.858787 7.103415 42.779602 6.927111 54.415526 -2.330773 0.000000 0.000000 0.000000 
-3.491326 89.693764 -2.394831 0.000000 0.000000 0.000000 -7.083929 -20.264927 -3.409884 -52.230002 4.297458 15.352107 51.333086 -0.437638 -0.087087 1.420075 -0.928696 -5.922489 0.000000 0.000000 0.000000 5.904265 -1.852959 8.930548 -23.061258 -7.515420 -5.695520 38.512274 3.573603 -4.074150 -15.254478 1.597789 7.297591 0.000000 0.000000 0.000000 0.727693 -5.943567 1.672308 6.508924 8.067471 3.791103 10.060828 -0.413140 -3.783126 3.725522 -0.075204 -1.725198 0.000000 0.000000 0.000000 4.931991 -0.371298 -0.813502 -0.178247 0.083783 -0.124161 0.000000 0.000000 0.000000 2.688068 -0.037276 -1.083902 1.369943 -0.996173 -12.456295 7.454257 -7.271892 -53.702871 5.458924 -43.851607 -0.847091 0.000000 0.000000 0.000000 4.967743 0.149280 0.678668 2.294895 4.436045 12.099119 6.706223 7.180801 42.770686 6.906845 54.636124 -2.382971 0.000000 0.000000 0.000000 
-3.542429 90.209549 -2.745541 0.000000 0.000000 0.000000 -6.491780 -20.182027 -3.553097 -51.537370 4.538671 15.141693 51.026779 -0.651136 -0.136324 1.082851 -1.114528 -6.164902 0.000000 0.000000 0.000000 5.925913 -1.798209 8.921792 -22.989332 -7.499771 -5.677264 38.058118 3.399532 -4.140546 -15.351088 1.498259 7.005767 0.000000 0.000000 0.000000 0.917436 -5.928981 1.686941 7.258685 8.186053 3.728235 10.109370 -0.554246 -3.765004 3.762237 -0.157033 -1.716669 0.000000 0.000000 0.000000 4.922208 -0.430176 -0.778962 -0.182256 0.059261 -0.113733 0.000000 0.000000 0.000000 2.743368 -0.101204 -1.056271 1.393071 -1.087125 -12.451738 7.603180 -7.582659 -53.633835 5.597600 -44.082724 -0.765625 0.000000 0.000000 0.000000 4.982706 0.097823 0.710043 2.299015 4.350453 12.156748 6.587133 7.212492 42.775736 6.887062 54.822073 -2.427304 0.000000 0.000000 0.000000 
-3.585520 90.718094 -3.157688 0.000000 0.000000 0.000000 -5.873327 -19.915121 -3.679216 -50.816607 4.820907 14.945523 50.782176 -0.868280 -0.230340 0.786717 -1.283073 -6.481018 0.000000 0.000000 0.000000 5.967047 -1.719661 8.935755 -22.884380 -7.485380 -5.629704 37.606683 3.207647 -4.212608 -15.437269 1.385764 6.690235 0.000000 0.000000 0.000000 1.117053 -5.953037 1.705565 8.028754 8.211610 3.702645 10.143614 -0.719103 -3.737056 3.788402 -0.250643 -1.700284 0.000000 0.000000 0.000000 4.908895 -0.497662 -0.737379 -0.188348 0.031234 -0.099892 0.000000 0.000000 0.000000 2.789755 -0.167770 -1.027849 1.409946 -1.186794 -12.449797 7.742253 -7.938226 -53.556627 5.735209 -44.339901 -0.686898 0.000000 0.000000 0.000000 4.997457 0.034510 0.743863 2.305034 4.217715 12.213474 6.536585 7.152167 42.778445 6.874807 54.909103 -2.467543 0.000000 0.000000 0.000000 
-3.629543 91.164856 -3.543041 0.000000 0.000000 0.000000 -5.158750 -19.803193 -3.797620 -49.990646 5.087210 14.742186 50.749275 -1.155393 -0.347151 0.646648 -1.521147 -6.886308 0.000000 0.000000 0.000000 5.979694 -1.587991 8.973399 -22.826062 -7.460272 -5.560305 37.187084 3.016728 -4.293889 -15.514452 1.276480 6.364188 0.000000 0.000000 0.000000 1.304718 -5.986163 1.721387 8.734748 8.157635 3.728696 10.151508 -0.893639 -3.697497 3.798777 -0.348111 -1.675165 0.000000 0.000000 0.000000 4.882290 -0.570038 -0.690439 -0.199144 0.000039 -0.083111 0.000000 0.000000 0.000000 2.829508 -0.231307 -0.998656 1.421891 -1.272526 -12.444366 7.846496 -8.263888 -53.472168 5.855668 -44.564727 -0.617802 0.000000 0.000000 0.000000 5.009724 -0.035794 0.779421 2.314345 4.062355 12.267219 6.528165 7.061575 42.779292 6.869454 54.948947 -2.505695 0.000000 0.000000 0.000000 
